<mxfile host="app.diagrams.net" modified="2021-11-16T09:20:30.468Z" agent="5.0 (Windows NT 10.0; Win64; x64) AppleWebKit/537.36 (KHTML, like Gecko) Chrome/94.0.4606.81 Safari/537.36" etag="wVffkwCqaZBV3s5RMael" version="15.7.4" type="github">
  <diagram id="Ii7Qvp2UMPxbZerNqTWp" name="Page-1">
    <mxGraphModel dx="2622" dy="1154" grid="1" gridSize="10" guides="1" tooltips="1" connect="1" arrows="1" fold="1" page="0" pageScale="1" pageWidth="1169" pageHeight="827" background="#FFFFFF" math="0" shadow="0">
      <root>
        <mxCell id="0" />
        <mxCell id="1" parent="0" />
        <mxCell id="F0fI_rU61IQj3vAh3Y80-74" value="" style="endArrow=none;dashed=1;html=1;strokeWidth=1;rounded=0;fontSize=24;fontColor=#FFFFFF;exitX=1.018;exitY=0.143;exitDx=0;exitDy=0;exitPerimeter=0;entryX=0;entryY=0.14;entryDx=0;entryDy=0;entryPerimeter=0;" edge="1" parent="1">
          <mxGeometry width="50" height="50" relative="1" as="geometry">
            <mxPoint x="-930" y="820.6700000000001" as="sourcePoint" />
            <mxPoint x="576.94" y="820" as="targetPoint" />
          </mxGeometry>
        </mxCell>
        <mxCell id="F0fI_rU61IQj3vAh3Y80-73" value="" style="endArrow=none;dashed=1;html=1;strokeWidth=1;rounded=0;fontSize=24;fontColor=#FFFFFF;exitX=1.018;exitY=0.143;exitDx=0;exitDy=0;exitPerimeter=0;entryX=0;entryY=0.14;entryDx=0;entryDy=0;entryPerimeter=0;" edge="1" parent="1">
          <mxGeometry width="50" height="50" relative="1" as="geometry">
            <mxPoint x="-920" y="692.6700000000001" as="sourcePoint" />
            <mxPoint x="586.94" y="692" as="targetPoint" />
          </mxGeometry>
        </mxCell>
        <mxCell id="F0fI_rU61IQj3vAh3Y80-45" value="" style="endArrow=none;dashed=1;html=1;strokeWidth=1;rounded=0;fontSize=24;fontColor=#FFFFFF;exitX=1.018;exitY=0.143;exitDx=0;exitDy=0;exitPerimeter=0;entryX=0;entryY=0.14;entryDx=0;entryDy=0;entryPerimeter=0;" edge="1" parent="1">
          <mxGeometry width="50" height="50" relative="1" as="geometry">
            <mxPoint x="-913.94" y="574.6700000000001" as="sourcePoint" />
            <mxPoint x="593" y="574" as="targetPoint" />
          </mxGeometry>
        </mxCell>
        <mxCell id="F0fI_rU61IQj3vAh3Y80-44" value="" style="endArrow=none;dashed=1;html=1;strokeWidth=1;rounded=0;fontSize=24;fontColor=#FFFFFF;exitX=1.018;exitY=0.143;exitDx=0;exitDy=0;exitPerimeter=0;entryX=0;entryY=0.14;entryDx=0;entryDy=0;entryPerimeter=0;" edge="1" parent="1">
          <mxGeometry width="50" height="50" relative="1" as="geometry">
            <mxPoint x="-916.94" y="347.6700000000001" as="sourcePoint" />
            <mxPoint x="590" y="347" as="targetPoint" />
          </mxGeometry>
        </mxCell>
        <mxCell id="F0fI_rU61IQj3vAh3Y80-43" value="" style="endArrow=none;dashed=1;html=1;strokeWidth=1;rounded=0;fontSize=24;fontColor=#FFFFFF;exitX=1.018;exitY=0.143;exitDx=0;exitDy=0;exitPerimeter=0;entryX=0;entryY=0.14;entryDx=0;entryDy=0;entryPerimeter=0;" edge="1" parent="1">
          <mxGeometry width="50" height="50" relative="1" as="geometry">
            <mxPoint x="-920" y="240.67" as="sourcePoint" />
            <mxPoint x="586.94" y="239.99999999999991" as="targetPoint" />
          </mxGeometry>
        </mxCell>
        <mxCell id="F0fI_rU61IQj3vAh3Y80-2" value="安+智慧社区架构图" style="rounded=1;whiteSpace=wrap;html=1;labelBackgroundColor=none;fontSize=36;fontColor=#FFFFFF;fillColor=#007FFF;shadow=1;" vertex="1" parent="1">
          <mxGeometry x="-370" y="-110" width="510" height="60" as="geometry" />
        </mxCell>
        <mxCell id="F0fI_rU61IQj3vAh3Y80-4" value="" style="whiteSpace=wrap;html=1;labelBackgroundColor=none;fontSize=36;dashed=1;strokeWidth=3;strokeColor=#009900;rounded=0;shadow=0;sketch=0;glass=0;perimeterSpacing=0;" vertex="1" parent="1">
          <mxGeometry x="-1090" y="5" width="170" height="955" as="geometry" />
        </mxCell>
        <mxCell id="F0fI_rU61IQj3vAh3Y80-5" value="用户层" style="rounded=0;whiteSpace=wrap;html=1;shadow=0;glass=0;labelBackgroundColor=none;sketch=0;fontSize=24;fontColor=#FFFFFF;strokeColor=default;strokeWidth=2;fillColor=#009900;" vertex="1" parent="1">
          <mxGeometry x="-1065" y="50" width="120" height="60" as="geometry" />
        </mxCell>
        <mxCell id="F0fI_rU61IQj3vAh3Y80-6" value="网关层" style="rounded=0;whiteSpace=wrap;html=1;shadow=0;glass=0;labelBackgroundColor=none;sketch=0;fontSize=24;fontColor=#FFFFFF;strokeColor=default;strokeWidth=2;fillColor=#009900;" vertex="1" parent="1">
          <mxGeometry x="-1065" y="154" width="120" height="60" as="geometry" />
        </mxCell>
        <mxCell id="F0fI_rU61IQj3vAh3Y80-7" value="中间件" style="rounded=0;whiteSpace=wrap;html=1;shadow=0;glass=0;labelBackgroundColor=none;sketch=0;fontSize=24;fontColor=#FFFFFF;strokeColor=default;strokeWidth=2;fillColor=#009900;" vertex="1" parent="1">
          <mxGeometry x="-1065" y="260" width="120" height="60" as="geometry" />
        </mxCell>
        <mxCell id="F0fI_rU61IQj3vAh3Y80-8" value="计算层" style="rounded=0;whiteSpace=wrap;html=1;shadow=0;glass=0;labelBackgroundColor=none;sketch=0;fontSize=24;fontColor=#FFFFFF;strokeColor=default;strokeWidth=2;fillColor=#009900;" vertex="1" parent="1">
          <mxGeometry x="-1065" y="426" width="120" height="60" as="geometry" />
        </mxCell>
        <mxCell id="F0fI_rU61IQj3vAh3Y80-9" value="存储层" style="rounded=0;whiteSpace=wrap;html=1;shadow=0;glass=0;labelBackgroundColor=none;sketch=0;fontSize=24;fontColor=#FFFFFF;strokeColor=default;strokeWidth=2;fillColor=#009900;" vertex="1" parent="1">
          <mxGeometry x="-1065" y="600" width="120" height="60" as="geometry" />
        </mxCell>
        <mxCell id="F0fI_rU61IQj3vAh3Y80-10" value="运行层" style="rounded=0;whiteSpace=wrap;html=1;shadow=0;glass=0;labelBackgroundColor=none;sketch=0;fontSize=24;fontColor=#FFFFFF;strokeColor=default;strokeWidth=2;fillColor=#009900;" vertex="1" parent="1">
          <mxGeometry x="-1065" y="724" width="120" height="60" as="geometry" />
        </mxCell>
        <mxCell id="F0fI_rU61IQj3vAh3Y80-11" value="基建层" style="rounded=0;whiteSpace=wrap;html=1;shadow=0;glass=0;labelBackgroundColor=none;sketch=0;fontSize=24;fontColor=#FFFFFF;strokeColor=default;strokeWidth=2;fillColor=#009900;" vertex="1" parent="1">
          <mxGeometry x="-1065" y="858" width="120" height="60" as="geometry" />
        </mxCell>
        <mxCell id="F0fI_rU61IQj3vAh3Y80-19" value="" style="whiteSpace=wrap;html=1;rounded=0;shadow=0;glass=0;labelBackgroundColor=none;sketch=0;fontSize=24;strokeColor=#BD7000;strokeWidth=2;fillColor=#f0a30a;fontColor=#000000;" vertex="1" parent="1">
          <mxGeometry x="566" width="160" height="960" as="geometry" />
        </mxCell>
        <mxCell id="F0fI_rU61IQj3vAh3Y80-20" value="&lt;font color=&quot;#ffffff&quot;&gt;监控运维&lt;/font&gt;" style="rounded=1;whiteSpace=wrap;html=1;shadow=0;glass=0;labelBackgroundColor=none;sketch=0;fontSize=24;strokeColor=#2D7600;strokeWidth=2;fillColor=#60a917;fontColor=#ffffff;" vertex="1" parent="1">
          <mxGeometry x="587" y="49" width="120" height="60" as="geometry" />
        </mxCell>
        <mxCell id="F0fI_rU61IQj3vAh3Y80-21" value="&lt;font color=&quot;#ffffff&quot;&gt;社区APP&lt;/font&gt;" style="rounded=1;whiteSpace=wrap;html=1;shadow=0;glass=0;labelBackgroundColor=none;sketch=0;fontSize=24;fontColor=#000000;strokeColor=default;strokeWidth=2;fillColor=#FF8000;" vertex="1" parent="1">
          <mxGeometry x="-822" y="50" width="120" height="60" as="geometry" />
        </mxCell>
        <mxCell id="F0fI_rU61IQj3vAh3Y80-22" value="&lt;font color=&quot;#ffffff&quot;&gt;康养小程序&lt;/font&gt;" style="rounded=1;whiteSpace=wrap;html=1;shadow=0;glass=0;labelBackgroundColor=none;sketch=0;fontSize=24;fontColor=#000000;strokeColor=default;strokeWidth=2;fillColor=#FF8000;" vertex="1" parent="1">
          <mxGeometry x="-662" y="50" width="150" height="60" as="geometry" />
        </mxCell>
        <mxCell id="F0fI_rU61IQj3vAh3Y80-23" value="&lt;font color=&quot;#ffffff&quot;&gt;Web平台&lt;/font&gt;" style="rounded=1;whiteSpace=wrap;html=1;shadow=0;glass=0;labelBackgroundColor=none;sketch=0;fontSize=24;fontColor=#000000;strokeColor=default;strokeWidth=2;fillColor=#FF8000;" vertex="1" parent="1">
          <mxGeometry x="-469" y="50" width="160" height="60" as="geometry" />
        </mxCell>
        <mxCell id="F0fI_rU61IQj3vAh3Y80-24" value="&lt;font color=&quot;#ffffff&quot;&gt;数据大屏&lt;/font&gt;" style="rounded=1;whiteSpace=wrap;html=1;shadow=0;glass=0;labelBackgroundColor=none;sketch=0;fontSize=24;fontColor=#000000;strokeColor=default;strokeWidth=2;fillColor=#FF8000;" vertex="1" parent="1">
          <mxGeometry x="-270" y="50" width="160" height="60" as="geometry" />
        </mxCell>
        <mxCell id="F0fI_rU61IQj3vAh3Y80-25" value="&lt;font color=&quot;#ffffff&quot;&gt;公众号&lt;/font&gt;" style="rounded=1;whiteSpace=wrap;html=1;shadow=0;glass=0;labelBackgroundColor=none;sketch=0;fontSize=24;fontColor=#000000;strokeColor=default;strokeWidth=2;fillColor=#FF8000;" vertex="1" parent="1">
          <mxGeometry x="-71" y="50" width="160" height="60" as="geometry" />
        </mxCell>
        <mxCell id="F0fI_rU61IQj3vAh3Y80-26" value="&lt;span style=&quot;color: rgb(255 , 255 , 255)&quot;&gt;IoT&lt;/span&gt;&lt;font color=&quot;#ffffff&quot;&gt;一体机&lt;/font&gt;" style="rounded=1;whiteSpace=wrap;html=1;shadow=0;glass=0;labelBackgroundColor=none;sketch=0;fontSize=24;fontColor=#000000;strokeColor=default;strokeWidth=2;fillColor=#FF8000;" vertex="1" parent="1">
          <mxGeometry x="126" y="50" width="160" height="60" as="geometry" />
        </mxCell>
        <mxCell id="F0fI_rU61IQj3vAh3Y80-27" value="&lt;font color=&quot;#ffffff&quot;&gt;客服平台&lt;/font&gt;" style="rounded=1;whiteSpace=wrap;html=1;shadow=0;glass=0;labelBackgroundColor=none;sketch=0;fontSize=24;fontColor=#000000;strokeColor=default;strokeWidth=2;fillColor=#FF8000;" vertex="1" parent="1">
          <mxGeometry x="325" y="50" width="160" height="60" as="geometry" />
        </mxCell>
        <mxCell id="F0fI_rU61IQj3vAh3Y80-29" value="" style="endArrow=none;dashed=1;html=1;strokeWidth=1;rounded=0;fontSize=24;fontColor=#FFFFFF;exitX=1.018;exitY=0.143;exitDx=0;exitDy=0;exitPerimeter=0;entryX=0;entryY=0.14;entryDx=0;entryDy=0;entryPerimeter=0;" edge="1" parent="1" source="F0fI_rU61IQj3vAh3Y80-4" target="F0fI_rU61IQj3vAh3Y80-19">
          <mxGeometry width="50" height="50" relative="1" as="geometry">
            <mxPoint x="-850" y="180" as="sourcePoint" />
            <mxPoint x="580" y="132" as="targetPoint" />
          </mxGeometry>
        </mxCell>
        <mxCell id="F0fI_rU61IQj3vAh3Y80-30" value="Nginx负载均衡" style="rounded=0;whiteSpace=wrap;html=1;shadow=1;glass=0;labelBackgroundColor=none;sketch=0;fontSize=24;fontColor=#FFFFFF;strokeColor=default;strokeWidth=2;fillColor=#B9E0A5;" vertex="1" parent="1">
          <mxGeometry x="-680" y="160" width="200" height="60" as="geometry" />
        </mxCell>
        <mxCell id="F0fI_rU61IQj3vAh3Y80-31" value="OAuth2鉴权" style="rounded=0;whiteSpace=wrap;html=1;shadow=1;glass=0;labelBackgroundColor=none;sketch=0;fontSize=24;fontColor=#FFFFFF;strokeColor=default;strokeWidth=2;fillColor=#B9E0A5;" vertex="1" parent="1">
          <mxGeometry x="-121" y="160" width="160" height="60" as="geometry" />
        </mxCell>
        <mxCell id="F0fI_rU61IQj3vAh3Y80-33" value="MySql热备" style="shape=cylinder3;whiteSpace=wrap;html=1;boundedLbl=1;backgroundOutline=1;size=15;rounded=1;shadow=1;glass=0;labelBackgroundColor=none;sketch=0;fontSize=24;fontColor=#FFFFFF;strokeColor=default;strokeWidth=2;fillColor=#97D077;" vertex="1" parent="1">
          <mxGeometry x="-690" y="593" width="130" height="80" as="geometry" />
        </mxCell>
        <mxCell id="F0fI_rU61IQj3vAh3Y80-34" value="Redis缓存" style="shape=cylinder3;whiteSpace=wrap;html=1;boundedLbl=1;backgroundOutline=1;size=15;rounded=1;shadow=1;glass=0;labelBackgroundColor=none;sketch=0;fontSize=24;fontColor=#FFFFFF;strokeColor=default;strokeWidth=2;fillColor=#97D077;" vertex="1" parent="1">
          <mxGeometry x="-385" y="593" width="140" height="80" as="geometry" />
        </mxCell>
        <mxCell id="F0fI_rU61IQj3vAh3Y80-35" value="SLS日志" style="shape=cylinder3;whiteSpace=wrap;html=1;boundedLbl=1;backgroundOutline=1;size=15;rounded=1;shadow=1;glass=0;labelBackgroundColor=none;sketch=0;fontSize=24;fontColor=#FFFFFF;strokeColor=default;strokeWidth=2;fillColor=#97D077;" vertex="1" parent="1">
          <mxGeometry x="-80" y="593" width="130" height="80" as="geometry" />
        </mxCell>
        <mxCell id="F0fI_rU61IQj3vAh3Y80-37" value="消息队列" style="rounded=1;whiteSpace=wrap;html=1;shadow=1;glass=0;labelBackgroundColor=none;sketch=0;fontSize=24;fontColor=#FFFFFF;strokeColor=default;strokeWidth=2;fillColor=#007FFF;" vertex="1" parent="1">
          <mxGeometry x="-620" y="270" width="120" height="60" as="geometry" />
        </mxCell>
        <mxCell id="F0fI_rU61IQj3vAh3Y80-38" value="分布式Job" style="rounded=1;whiteSpace=wrap;html=1;shadow=1;glass=0;labelBackgroundColor=none;sketch=0;fontSize=24;fontColor=#FFFFFF;strokeColor=default;strokeWidth=2;fillColor=#007FFF;" vertex="1" parent="1">
          <mxGeometry x="-435" y="270" width="120" height="60" as="geometry" />
        </mxCell>
        <mxCell id="F0fI_rU61IQj3vAh3Y80-39" value="服务注册" style="rounded=1;whiteSpace=wrap;html=1;shadow=1;glass=0;labelBackgroundColor=none;sketch=0;fontSize=24;fontColor=#FFFFFF;strokeColor=default;strokeWidth=2;fillColor=#007FFF;" vertex="1" parent="1">
          <mxGeometry x="-251" y="270" width="120" height="60" as="geometry" />
        </mxCell>
        <mxCell id="F0fI_rU61IQj3vAh3Y80-40" value="服务监控" style="rounded=1;whiteSpace=wrap;html=1;shadow=1;glass=0;labelBackgroundColor=none;sketch=0;fontSize=24;fontColor=#FFFFFF;strokeColor=default;strokeWidth=2;fillColor=#007FFF;" vertex="1" parent="1">
          <mxGeometry x="-70" y="270" width="120" height="60" as="geometry" />
        </mxCell>
        <mxCell id="F0fI_rU61IQj3vAh3Y80-41" value="JWT授权" style="rounded=0;whiteSpace=wrap;html=1;shadow=1;glass=0;labelBackgroundColor=none;sketch=0;fontSize=24;fontColor=#FFFFFF;strokeColor=default;strokeWidth=2;fillColor=#B9E0A5;" vertex="1" parent="1">
          <mxGeometry x="140" y="160" width="160" height="60" as="geometry" />
        </mxCell>
        <mxCell id="F0fI_rU61IQj3vAh3Y80-42" value="OSS存储" style="shape=cylinder3;whiteSpace=wrap;html=1;boundedLbl=1;backgroundOutline=1;size=15;rounded=1;shadow=1;glass=0;labelBackgroundColor=none;sketch=0;fontSize=24;fontColor=#FFFFFF;strokeColor=default;strokeWidth=2;fillColor=#97D077;" vertex="1" parent="1">
          <mxGeometry x="190" y="593" width="130" height="80" as="geometry" />
        </mxCell>
        <mxCell id="F0fI_rU61IQj3vAh3Y80-49" value="" style="rounded=0;whiteSpace=wrap;html=1;shadow=1;glass=0;labelBackgroundColor=none;sketch=0;fontSize=24;strokeWidth=2;" vertex="1" parent="1">
          <mxGeometry x="-903" y="370" width="1449" height="180" as="geometry" />
        </mxCell>
        <mxCell id="F0fI_rU61IQj3vAh3Y80-50" value="&lt;font color=&quot;#ffffff&quot;&gt;物业缴费&lt;/font&gt;" style="rounded=0;whiteSpace=wrap;html=1;shadow=1;glass=0;labelBackgroundColor=none;sketch=0;fontSize=24;strokeColor=#d79b00;strokeWidth=2;fillColor=#ffcd28;gradientColor=#ffa500;" vertex="1" parent="1">
          <mxGeometry x="-880" y="380" width="120" height="60" as="geometry" />
        </mxCell>
        <mxCell id="F0fI_rU61IQj3vAh3Y80-51" value="&lt;font color=&quot;#ffffff&quot;&gt;智能门禁&lt;/font&gt;" style="rounded=0;whiteSpace=wrap;html=1;shadow=1;glass=0;labelBackgroundColor=none;sketch=0;fontSize=24;strokeColor=#d79b00;strokeWidth=2;fillColor=#ffcd28;gradientColor=#ffa500;" vertex="1" parent="1">
          <mxGeometry x="-740" y="380" width="120" height="60" as="geometry" />
        </mxCell>
        <mxCell id="F0fI_rU61IQj3vAh3Y80-52" value="&lt;font color=&quot;#ffffff&quot;&gt;报事报修&lt;/font&gt;" style="rounded=0;whiteSpace=wrap;html=1;shadow=1;glass=0;labelBackgroundColor=none;sketch=0;fontSize=24;strokeColor=#d79b00;strokeWidth=2;fillColor=#ffcd28;gradientColor=#ffa500;" vertex="1" parent="1">
          <mxGeometry x="-600" y="380" width="120" height="60" as="geometry" />
        </mxCell>
        <mxCell id="F0fI_rU61IQj3vAh3Y80-53" value="&lt;font color=&quot;#ffffff&quot;&gt;财务对账&lt;/font&gt;" style="rounded=0;whiteSpace=wrap;html=1;shadow=1;glass=0;labelBackgroundColor=none;sketch=0;fontSize=24;strokeColor=#d79b00;strokeWidth=2;fillColor=#ffcd28;gradientColor=#ffa500;" vertex="1" parent="1">
          <mxGeometry x="-460" y="380" width="120" height="60" as="geometry" />
        </mxCell>
        <mxCell id="F0fI_rU61IQj3vAh3Y80-54" value="&lt;font color=&quot;#ffffff&quot;&gt;设备管理&lt;/font&gt;" style="rounded=0;whiteSpace=wrap;html=1;shadow=1;glass=0;labelBackgroundColor=none;sketch=0;fontSize=24;strokeColor=#d79b00;strokeWidth=2;fillColor=#ffcd28;gradientColor=#ffa500;" vertex="1" parent="1">
          <mxGeometry x="-320" y="380" width="120" height="60" as="geometry" />
        </mxCell>
        <mxCell id="F0fI_rU61IQj3vAh3Y80-55" value="&lt;font color=&quot;#ffffff&quot;&gt;积分商城&lt;/font&gt;" style="rounded=0;whiteSpace=wrap;html=1;shadow=1;glass=0;labelBackgroundColor=none;sketch=0;fontSize=24;strokeColor=#d79b00;strokeWidth=2;fillColor=#ffcd28;gradientColor=#ffa500;" vertex="1" parent="1">
          <mxGeometry x="-179" y="380" width="120" height="60" as="geometry" />
        </mxCell>
        <mxCell id="F0fI_rU61IQj3vAh3Y80-56" value="&lt;font color=&quot;#ffffff&quot;&gt;通知公告&lt;/font&gt;" style="rounded=0;whiteSpace=wrap;html=1;shadow=1;glass=0;labelBackgroundColor=none;sketch=0;fontSize=24;strokeColor=#d79b00;strokeWidth=2;fillColor=#ffcd28;gradientColor=#ffa500;" vertex="1" parent="1">
          <mxGeometry x="-40" y="380" width="120" height="60" as="geometry" />
        </mxCell>
        <mxCell id="F0fI_rU61IQj3vAh3Y80-57" value="&lt;font color=&quot;#ffffff&quot;&gt;周边商户&lt;/font&gt;" style="rounded=0;whiteSpace=wrap;html=1;shadow=1;glass=0;labelBackgroundColor=none;sketch=0;fontSize=24;strokeColor=#d79b00;strokeWidth=2;fillColor=#ffcd28;gradientColor=#ffa500;" vertex="1" parent="1">
          <mxGeometry x="100" y="380" width="120" height="60" as="geometry" />
        </mxCell>
        <mxCell id="F0fI_rU61IQj3vAh3Y80-58" value="&lt;font color=&quot;#ffffff&quot;&gt;家政服务&lt;/font&gt;" style="rounded=0;whiteSpace=wrap;html=1;shadow=1;glass=0;labelBackgroundColor=none;sketch=0;fontSize=24;strokeColor=#d79b00;strokeWidth=2;fillColor=#ffcd28;gradientColor=#ffa500;" vertex="1" parent="1">
          <mxGeometry x="240" y="380" width="120" height="60" as="geometry" />
        </mxCell>
        <mxCell id="F0fI_rU61IQj3vAh3Y80-59" value="&lt;font color=&quot;#ffffff&quot;&gt;邻里论坛&lt;/font&gt;" style="rounded=0;whiteSpace=wrap;html=1;shadow=1;glass=0;labelBackgroundColor=none;sketch=0;fontSize=24;strokeColor=#d79b00;strokeWidth=2;fillColor=#ffcd28;gradientColor=#ffa500;" vertex="1" parent="1">
          <mxGeometry x="380" y="380" width="120" height="60" as="geometry" />
        </mxCell>
        <mxCell id="F0fI_rU61IQj3vAh3Y80-60" value="&lt;font color=&quot;#ffffff&quot;&gt;车辆管理&lt;/font&gt;" style="rounded=0;whiteSpace=wrap;html=1;shadow=1;glass=0;labelBackgroundColor=none;sketch=0;fontSize=24;strokeColor=#3700CC;strokeWidth=2;fillColor=#6a00ff;fontColor=#ffffff;" vertex="1" parent="1">
          <mxGeometry x="-880" y="474" width="120" height="60" as="geometry" />
        </mxCell>
        <mxCell id="F0fI_rU61IQj3vAh3Y80-61" value="&lt;font color=&quot;#ffffff&quot;&gt;视频监控&lt;/font&gt;" style="rounded=0;whiteSpace=wrap;html=1;shadow=1;glass=0;labelBackgroundColor=none;sketch=0;fontSize=24;strokeColor=#3700CC;strokeWidth=2;fillColor=#6a00ff;fontColor=#ffffff;" vertex="1" parent="1">
          <mxGeometry x="-740" y="474" width="120" height="60" as="geometry" />
        </mxCell>
        <mxCell id="F0fI_rU61IQj3vAh3Y80-64" value="&lt;font color=&quot;#ffffff&quot;&gt;预警监测&lt;/font&gt;" style="rounded=0;whiteSpace=wrap;html=1;shadow=1;glass=0;labelBackgroundColor=none;sketch=0;fontSize=24;strokeColor=#3700CC;strokeWidth=2;fillColor=#6a00ff;fontColor=#ffffff;" vertex="1" parent="1">
          <mxGeometry x="-600" y="474" width="120" height="60" as="geometry" />
        </mxCell>
        <mxCell id="F0fI_rU61IQj3vAh3Y80-65" value="&lt;font color=&quot;#ffffff&quot;&gt;运营中心&lt;/font&gt;" style="rounded=0;whiteSpace=wrap;html=1;shadow=1;glass=0;labelBackgroundColor=none;sketch=0;fontSize=24;strokeColor=#3700CC;strokeWidth=2;fillColor=#6a00ff;fontColor=#ffffff;" vertex="1" parent="1">
          <mxGeometry x="-460" y="474" width="120" height="60" as="geometry" />
        </mxCell>
        <mxCell id="F0fI_rU61IQj3vAh3Y80-66" value="社区惠购" style="rounded=0;whiteSpace=wrap;html=1;shadow=1;glass=0;labelBackgroundColor=none;sketch=0;fontSize=24;strokeColor=#3700CC;strokeWidth=2;fillColor=#6a00ff;fontColor=#ffffff;" vertex="1" parent="1">
          <mxGeometry x="-320" y="474" width="120" height="60" as="geometry" />
        </mxCell>
        <mxCell id="F0fI_rU61IQj3vAh3Y80-67" value="&lt;font color=&quot;#ffffff&quot;&gt;问卷调查&lt;/font&gt;" style="rounded=0;whiteSpace=wrap;html=1;shadow=1;glass=0;labelBackgroundColor=none;sketch=0;fontSize=24;strokeColor=#3700CC;strokeWidth=2;fillColor=#6a00ff;fontColor=#ffffff;" vertex="1" parent="1">
          <mxGeometry x="-179" y="474" width="120" height="60" as="geometry" />
        </mxCell>
        <mxCell id="F0fI_rU61IQj3vAh3Y80-68" value="&lt;font color=&quot;#ffffff&quot;&gt;业主验房&lt;/font&gt;" style="rounded=0;whiteSpace=wrap;html=1;shadow=1;glass=0;labelBackgroundColor=none;sketch=0;fontSize=24;strokeColor=#3700CC;strokeWidth=2;fillColor=#6a00ff;fontColor=#ffffff;" vertex="1" parent="1">
          <mxGeometry x="-37" y="474" width="120" height="60" as="geometry" />
        </mxCell>
        <mxCell id="F0fI_rU61IQj3vAh3Y80-69" value="&lt;font color=&quot;#ffffff&quot;&gt;IoT康养&lt;/font&gt;" style="rounded=0;whiteSpace=wrap;html=1;shadow=1;glass=0;labelBackgroundColor=none;sketch=0;fontSize=24;strokeColor=#3700CC;strokeWidth=2;fillColor=#6a00ff;fontColor=#ffffff;" vertex="1" parent="1">
          <mxGeometry x="100" y="474" width="120" height="60" as="geometry" />
        </mxCell>
        <mxCell id="F0fI_rU61IQj3vAh3Y80-70" value="&lt;font color=&quot;#ffffff&quot;&gt;水电平台&lt;/font&gt;" style="rounded=0;whiteSpace=wrap;html=1;shadow=1;glass=0;labelBackgroundColor=none;sketch=0;fontSize=24;strokeColor=#3700CC;strokeWidth=2;fillColor=#6a00ff;fontColor=#ffffff;" vertex="1" parent="1">
          <mxGeometry x="240" y="474" width="120" height="60" as="geometry" />
        </mxCell>
        <mxCell id="F0fI_rU61IQj3vAh3Y80-71" value="&amp;nbsp;社区服务" style="rounded=0;whiteSpace=wrap;html=1;shadow=1;glass=0;labelBackgroundColor=none;sketch=0;fontSize=24;strokeColor=#3700CC;strokeWidth=2;fillColor=#6a00ff;fontColor=#ffffff;" vertex="1" parent="1">
          <mxGeometry x="380" y="474" width="120" height="60" as="geometry" />
        </mxCell>
        <mxCell id="F0fI_rU61IQj3vAh3Y80-76" value="" style="rounded=0;whiteSpace=wrap;html=1;shadow=0;glass=0;labelBackgroundColor=none;sketch=0;fontSize=24;strokeWidth=2;fillColor=#60a917;strokeColor=#2D7600;fontColor=#ffffff;" vertex="1" parent="1">
          <mxGeometry x="-916" y="822" width="1480" height="140" as="geometry" />
        </mxCell>
        <mxCell id="F0fI_rU61IQj3vAh3Y80-77" value="Docker容器" style="rounded=1;whiteSpace=wrap;html=1;shadow=1;glass=0;labelBackgroundColor=none;sketch=0;fontSize=24;fontColor=#FFFFFF;strokeColor=#BD7000;strokeWidth=2;fillColor=#f0a30a;" vertex="1" parent="1">
          <mxGeometry x="-387" y="724" width="150" height="60" as="geometry" />
        </mxCell>
        <mxCell id="F0fI_rU61IQj3vAh3Y80-78" value="Linux系统" style="rounded=1;whiteSpace=wrap;html=1;shadow=1;glass=0;labelBackgroundColor=none;sketch=0;fontSize=24;fontColor=#FFFFFF;strokeColor=#BD7000;strokeWidth=2;fillColor=#f0a30a;" vertex="1" parent="1">
          <mxGeometry x="-147" y="724" width="150" height="60" as="geometry" />
        </mxCell>
        <mxCell id="F0fI_rU61IQj3vAh3Y80-79" value="阿里云" style="rounded=1;whiteSpace=wrap;html=1;shadow=1;glass=0;labelBackgroundColor=none;sketch=0;fontSize=24;fontColor=#FFFFFF;strokeColor=#BD7000;strokeWidth=2;fillColor=#f0a30a;" vertex="1" parent="1">
          <mxGeometry x="88" y="724" width="150" height="60" as="geometry" />
        </mxCell>
        <mxCell id="F0fI_rU61IQj3vAh3Y80-80" value="微服务" style="rounded=1;whiteSpace=wrap;html=1;shadow=1;glass=0;labelBackgroundColor=none;sketch=0;fontSize=24;fontColor=#FFFFFF;strokeColor=#BD7000;strokeWidth=2;fillColor=#f0a30a;" vertex="1" parent="1">
          <mxGeometry x="-616" y="724" width="150" height="60" as="geometry" />
        </mxCell>
        <mxCell id="F0fI_rU61IQj3vAh3Y80-81" value="分布式" style="rounded=1;whiteSpace=wrap;html=1;shadow=1;glass=0;labelBackgroundColor=none;sketch=0;fontSize=24;fontColor=#FFFFFF;strokeColor=#BD7000;strokeWidth=2;fillColor=#f0a30a;" vertex="1" parent="1">
          <mxGeometry x="-850" y="724" width="150" height="60" as="geometry" />
        </mxCell>
        <mxCell id="F0fI_rU61IQj3vAh3Y80-82" value="物联网" style="rounded=1;whiteSpace=wrap;html=1;shadow=1;glass=0;labelBackgroundColor=none;sketch=0;fontSize=24;fontColor=#FFFFFF;strokeColor=#BD7000;strokeWidth=2;fillColor=#f0a30a;" vertex="1" parent="1">
          <mxGeometry x="330" y="724" width="150" height="60" as="geometry" />
        </mxCell>
        <mxCell id="F0fI_rU61IQj3vAh3Y80-83" value="DevOps" style="rounded=0;whiteSpace=wrap;html=1;shadow=1;glass=0;labelBackgroundColor=none;sketch=0;fontSize=24;strokeWidth=2;fillColor=#cdeb8b;strokeColor=#36393d;" vertex="1" parent="1">
          <mxGeometry x="-888" y="860" width="120" height="60" as="geometry" />
        </mxCell>
        <mxCell id="F0fI_rU61IQj3vAh3Y80-84" value="CI/CD" style="rounded=0;whiteSpace=wrap;html=1;shadow=1;glass=0;labelBackgroundColor=none;sketch=0;fontSize=24;strokeWidth=2;fillColor=#cdeb8b;strokeColor=#36393d;" vertex="1" parent="1">
          <mxGeometry x="-739" y="860" width="120" height="60" as="geometry" />
        </mxCell>
        <mxCell id="F0fI_rU61IQj3vAh3Y80-85" value="Fastlane" style="rounded=0;whiteSpace=wrap;html=1;shadow=1;glass=0;labelBackgroundColor=none;sketch=0;fontSize=24;strokeWidth=2;fillColor=#cdeb8b;strokeColor=#36393d;" vertex="1" parent="1">
          <mxGeometry x="-590" y="859" width="120" height="60" as="geometry" />
        </mxCell>
        <mxCell id="F0fI_rU61IQj3vAh3Y80-86" value="代码扫描" style="rounded=0;whiteSpace=wrap;html=1;shadow=1;glass=0;labelBackgroundColor=none;sketch=0;fontSize=24;strokeWidth=2;fillColor=#cdeb8b;strokeColor=#36393d;" vertex="1" parent="1">
          <mxGeometry x="-454" y="860" width="120" height="60" as="geometry" />
        </mxCell>
        <mxCell id="F0fI_rU61IQj3vAh3Y80-87" value="自动化测试" style="rounded=0;whiteSpace=wrap;html=1;shadow=1;glass=0;labelBackgroundColor=none;sketch=0;fontSize=24;strokeWidth=2;fillColor=#cdeb8b;strokeColor=#36393d;" vertex="1" parent="1">
          <mxGeometry x="-293" y="859" width="140" height="60" as="geometry" />
        </mxCell>
        <mxCell id="F0fI_rU61IQj3vAh3Y80-88" value="Jenkins Pipeline" style="rounded=0;whiteSpace=wrap;html=1;shadow=1;glass=0;labelBackgroundColor=none;sketch=0;fontSize=24;strokeWidth=2;fillColor=#cdeb8b;strokeColor=#36393d;" vertex="1" parent="1">
          <mxGeometry x="-121" y="859" width="140" height="60" as="geometry" />
        </mxCell>
        <mxCell id="F0fI_rU61IQj3vAh3Y80-89" value="Code Review" style="rounded=0;whiteSpace=wrap;html=1;shadow=1;glass=0;labelBackgroundColor=none;sketch=0;fontSize=24;strokeWidth=2;fillColor=#cdeb8b;strokeColor=#36393d;" vertex="1" parent="1">
          <mxGeometry x="46" y="860" width="140" height="60" as="geometry" />
        </mxCell>
        <mxCell id="F0fI_rU61IQj3vAh3Y80-93" value="RPC服务" style="rounded=1;whiteSpace=wrap;html=1;shadow=1;glass=0;labelBackgroundColor=none;sketch=0;fontSize=24;fontColor=#FFFFFF;strokeColor=default;strokeWidth=2;fillColor=#007FFF;" vertex="1" parent="1">
          <mxGeometry x="120" y="270" width="120" height="60" as="geometry" />
        </mxCell>
        <mxCell id="F0fI_rU61IQj3vAh3Y80-94" value="LVS负载均衡" style="rounded=0;whiteSpace=wrap;html=1;shadow=1;glass=0;labelBackgroundColor=none;sketch=0;fontSize=24;fontColor=#FFFFFF;strokeColor=default;strokeWidth=2;fillColor=#B9E0A5;" vertex="1" parent="1">
          <mxGeometry x="-380" y="160" width="160" height="60" as="geometry" />
        </mxCell>
        <mxCell id="F0fI_rU61IQj3vAh3Y80-95" value="Monorepo" style="rounded=0;whiteSpace=wrap;html=1;shadow=1;glass=0;labelBackgroundColor=none;sketch=0;fontSize=24;strokeWidth=2;fillColor=#cdeb8b;strokeColor=#36393d;" vertex="1" parent="1">
          <mxGeometry x="215" y="860" width="140" height="60" as="geometry" />
        </mxCell>
        <mxCell id="F0fI_rU61IQj3vAh3Y80-96" value="滚动、蓝绿部署" style="rounded=0;whiteSpace=wrap;html=1;shadow=1;glass=0;labelBackgroundColor=none;sketch=0;fontSize=24;strokeWidth=2;fillColor=#cdeb8b;strokeColor=#36393d;" vertex="1" parent="1">
          <mxGeometry x="390" y="861" width="140" height="60" as="geometry" />
        </mxCell>
        <mxCell id="F0fI_rU61IQj3vAh3Y80-97" value="" style="rounded=0;whiteSpace=wrap;html=1;shadow=0;glass=0;labelBackgroundColor=none;sketch=0;fontSize=24;strokeWidth=2;" vertex="1" parent="1">
          <mxGeometry x="582" y="150" width="133" height="770" as="geometry" />
        </mxCell>
        <mxCell id="F0fI_rU61IQj3vAh3Y80-98" value="健康探测" style="rounded=0;whiteSpace=wrap;html=1;shadow=1;glass=0;labelBackgroundColor=none;sketch=0;fontSize=24;strokeColor=#001DBC;strokeWidth=2;fillColor=#0050ef;fontColor=#ffffff;" vertex="1" parent="1">
          <mxGeometry x="595.25" y="184" width="103.5" height="60" as="geometry" />
        </mxCell>
        <mxCell id="F0fI_rU61IQj3vAh3Y80-99" value="负载探测" style="rounded=0;whiteSpace=wrap;html=1;shadow=1;glass=0;labelBackgroundColor=none;sketch=0;fontSize=24;strokeColor=#001DBC;strokeWidth=2;fillColor=#0050ef;fontColor=#ffffff;" vertex="1" parent="1">
          <mxGeometry x="595.25" y="305" width="103.5" height="60" as="geometry" />
        </mxCell>
        <mxCell id="F0fI_rU61IQj3vAh3Y80-100" value="性能探测" style="rounded=0;whiteSpace=wrap;html=1;shadow=1;glass=0;labelBackgroundColor=none;sketch=0;fontSize=24;strokeColor=#001DBC;strokeWidth=2;fillColor=#0050ef;fontColor=#ffffff;" vertex="1" parent="1">
          <mxGeometry x="596" y="430" width="103.5" height="60" as="geometry" />
        </mxCell>
        <mxCell id="F0fI_rU61IQj3vAh3Y80-102" value="Grafana" style="rounded=0;whiteSpace=wrap;html=1;shadow=1;glass=0;labelBackgroundColor=none;sketch=0;fontSize=24;strokeColor=#001DBC;strokeWidth=2;fillColor=#0050ef;fontColor=#ffffff;" vertex="1" parent="1">
          <mxGeometry x="595.25" y="560" width="103.5" height="60" as="geometry" />
        </mxCell>
        <mxCell id="F0fI_rU61IQj3vAh3Y80-103" value="&lt;font style=&quot;font-size: 19px&quot;&gt;Prometheus&lt;/font&gt;" style="rounded=0;whiteSpace=wrap;html=1;shadow=1;glass=0;labelBackgroundColor=none;sketch=0;fontSize=24;strokeColor=#001DBC;strokeWidth=2;fillColor=#0050ef;fontColor=#ffffff;" vertex="1" parent="1">
          <mxGeometry x="596.25" y="688" width="103.5" height="60" as="geometry" />
        </mxCell>
        <mxCell id="F0fI_rU61IQj3vAh3Y80-104" value="告警通知" style="rounded=0;whiteSpace=wrap;html=1;shadow=1;glass=0;labelBackgroundColor=none;sketch=0;fontSize=24;strokeColor=#001DBC;strokeWidth=2;fillColor=#0050ef;fontColor=#ffffff;" vertex="1" parent="1">
          <mxGeometry x="594.25" y="822" width="103.5" height="60" as="geometry" />
        </mxCell>
        <mxCell id="F0fI_rU61IQj3vAh3Y80-105" value="" style="endArrow=none;html=1;strokeWidth=2;rounded=0;fontSize=24;fontColor=#FFFFFF;exitX=1.018;exitY=0.143;exitDx=0;exitDy=0;exitPerimeter=0;entryX=0;entryY=0.14;entryDx=0;entryDy=0;entryPerimeter=0;strokeColor=#666666;dashed=1;" edge="1" parent="1">
          <mxGeometry width="50" height="50" relative="1" as="geometry">
            <mxPoint x="-916.94" y="7.165000000000049" as="sourcePoint" />
            <mxPoint x="566" y="8.526512829121202e-14" as="targetPoint" />
          </mxGeometry>
        </mxCell>
      </root>
    </mxGraphModel>
  </diagram>
</mxfile>
